FFmpeg version SVN-r25716, Copyright (c) 2000-2010 the FFmpeg developers  built on Nov 10 2010 12:23:18 with gcc 4.1.2 20080704 (Red Hat 4.1.2-48)  configuration: --enable-libmp3lame --enable-shared --disable-mmx --arch=x86_64  libavutil     50.33. 0 / 50.33. 0  libavcore      0.12. 1 /  0.12. 1  libavcodec    52.94. 4 / 52.94. 4  libavformat   52.84. 0 / 52.84. 0  libavdevice   52. 2. 2 / 52. 2. 2  libavfilter    1.59. 0 /  1.59. 0  libswscale     0.12. 0 /  0.12. 0Input #0, avi, from '/RAID10/data/converted_video_files/47387.avi':  Duration: 00:00:07.50, start: 0.000000, bitrate: 20984 kb/s    Stream #0.0: Video: msvideo1, rgb555le, 1024x1024, 20 tbr, 20 tbn, 20 tbc[buffer @ 0x14784380] w:1024 h:1024 pixfmt:rgb555le[ffsink @ 0x14783700] auto-inserting filter 'auto-inserted scaler 0' between the filter 'src' and the filter 'out'[scale @ 0x147839f0] w:1024 h:1024 fmt:rgb555le -> w:1024 h:1024 fmt:yuv420p flags:0x4Output #0, flv, to '/RAID10/data/converted_video_files/47387.flv':  Metadata:    encoder         : Lavf52.84.0    Stream #0.0: Video: flv, yuv420p, 1024x1024, q=2-31, 600 kb/s, 1k tbn, 24 tbcStream mapping:  Stream #0.0 -> #0.0Press [q] to stop encodingframe=    6 fps=  0 q=6.4 size=     354kB time=0.29 bitrate=9936.2kbits/s    frame=   16 fps= 14 q=31.0 size=     435kB time=0.79 bitrate=4504.2kbits/s    frame=   27 fps= 16 q=31.0 size=     483kB time=1.33 bitrate=2968.0kbits/s    frame=   38 fps= 17 q=31.0 size=     522kB time=1.87 bitrate=2282.9kbits/s    frame=   47 fps= 17 q=31.0 size=     530kB time=2.33 bitrate=1861.8kbits/s    frame=   55 fps= 17 q=31.0 size=     564kB time=2.75 bitrate=1680.5kbits/s    frame=   64 fps= 17 q=31.0 size=     598kB time=3.21 bitrate=1527.1kbits/s    frame=   75 fps= 17 q=31.0 size=     638kB time=3.75 bitrate=1394.2kbits/s    frame=   85 fps= 18 q=24.8 size=     683kB time=4.25 bitrate=1315.8kbits/s    frame=   96 fps= 18 q=31.0 size=     703kB time=4.79 bitrate=1202.2kbits/s    frame=  108 fps= 18 q=31.0 size=     745kB time=5.38 bitrate=1135.9kbits/s    frame=  119 fps= 19 q=31.0 size=     783kB time=5.96 bitrate=1076.1kbits/s    frame=  129 fps= 19 q=31.0 size=     817kB time=6.46 bitrate=1035.8kbits/s    frame=  137 fps= 18 q=31.0 size=     849kB time=6.83 bitrate=1018.2kbits/s    frame=  147 fps= 18 q=31.0 size=     883kB time=7.33 bitrate= 986.3kbits/s    frame=  150 fps= 18 q=31.0 Lsize=     885kB time=7.50 bitrate= 966.8kbits/s    video:883kB audio:0kB global headers:0kB muxing overhead 0.288804%